<svg width="24" height="24" viewBox="0 0 24 24" fill="none" xmlns="http://www.w3.org/2000/svg">
<path d="M16.0325 3.00006H7.96724C5.22831 3.00006 3 5.22847 3 7.96741V16.0327C3 18.7718 5.22831 21.0001 7.96724 21.0001H16.0325C18.7717 21.0001 21 18.7716 21 16.0327V7.96741C21.0001 5.22847 18.7717 3.00006 16.0325 3.00006ZM19.4031 16.0327C19.4031 17.8911 17.8911 19.403 16.0327 19.403H7.96724C6.10892 19.4031 4.59705 17.8911 4.59705 16.0327V7.96741C4.59705 6.10909 6.10892 4.59711 7.96724 4.59711H16.0325C17.891 4.59711 19.403 6.10909 19.403 7.96741L19.4031 16.0327Z" fill="currentColor"/>
<path d="M12 7.36212C9.44245 7.36212 7.36182 9.44275 7.36182 12.0003C7.36182 14.5577 9.44245 16.6382 12 16.6382C14.5575 16.6382 16.6381 14.5577 16.6381 12.0003C16.6381 9.44275 14.5575 7.36212 12 7.36212ZM12 15.041C10.3232 15.041 8.95886 13.677 8.95886 12.0002C8.95886 10.3233 10.3231 8.95906 12 8.95906C13.6769 8.95906 15.0411 10.3233 15.0411 12.0002C15.0411 13.677 13.6768 15.041 12 15.041Z" fill="currentColor"/>
<path d="M16.8327 6.00787C16.525 6.00787 16.2227 6.13244 16.0054 6.35071C15.787 6.5679 15.6615 6.87028 15.6615 7.17904C15.6615 7.48685 15.7871 7.78911 16.0054 8.00738C16.2226 8.22457 16.525 8.35021 16.8327 8.35021C17.1414 8.35021 17.4427 8.22457 17.661 8.00738C17.8793 7.78911 18.0038 7.48674 18.0038 7.17904C18.0038 6.87028 17.8793 6.5679 17.661 6.35071C17.4438 6.13244 17.1414 6.00787 16.8327 6.00787Z" fill="currentColor"/>
</svg>
