<svg width="140" height="18" viewBox="0 0 140 18" fill="none" xmlns="http://www.w3.org/2000/svg">
  <path d="M15.528 1.16L9.936 11.216V17H5.808V11.216L0.216 1.16H4.488L6.72 5.504L7.896 8.144L9.096 5.504L11.328 1.16H15.528ZM23.6544 0.92C25.2544 0.92 26.6304 1.248 27.7824 1.904C28.9504 2.544 29.8464 3.472 30.4704 4.688C31.0944 5.904 31.4064 7.368 31.4064 9.08C31.4064 10.792 31.0944 12.256 30.4704 13.472C29.8464 14.688 28.9504 15.624 27.7824 16.28C26.6304 16.92 25.2544 17.24 23.6544 17.24C22.0384 17.24 20.6464 16.92 19.4784 16.28C18.3264 15.624 17.4384 14.688 16.8144 13.472C16.1904 12.256 15.8784 10.792 15.8784 9.08C15.8784 7.368 16.1904 5.904 16.8144 4.688C17.4384 3.472 18.3264 2.544 19.4784 1.904C20.6464 1.248 22.0384 0.92 23.6544 0.92ZM23.6544 4.16C22.5024 4.16 21.6224 4.576 21.0144 5.408C20.4064 6.224 20.1024 7.448 20.1024 9.08C20.1024 10.712 20.4064 11.944 21.0144 12.776C21.6224 13.592 22.5024 14 23.6544 14C24.7904 14 25.6624 13.592 26.2704 12.776C26.8784 11.944 27.1824 10.712 27.1824 9.08C27.1824 7.448 26.8784 6.224 26.2704 5.408C25.6624 4.576 24.7904 4.16 23.6544 4.16ZM48.2438 1.16V10.544C48.2438 15.008 45.8837 17.24 41.1637 17.24C38.8437 17.24 37.0837 16.688 35.8837 15.584C34.6837 14.464 34.0837 12.784 34.0837 10.544V1.16H38.2357V10.616C38.2357 12.872 39.2117 14 41.1637 14C43.1317 14 44.1157 12.872 44.1157 10.616V1.16H48.2438ZM59.1448 1.16C61.0328 1.16 62.4968 1.6 63.5368 2.48C64.5928 3.36 65.1208 4.544 65.1208 6.032C65.1208 7.216 64.8408 8.192 64.2808 8.96C63.7368 9.712 62.9528 10.264 61.9288 10.616L66.0568 17H61.4968L58.1128 11.216H55.6408V17H51.5848V1.16H59.1448ZM58.5688 8.288C59.3688 8.288 59.9688 8.128 60.3688 7.808C60.7688 7.488 60.9688 6.976 60.9688 6.272C60.9688 4.944 60.1688 4.28 58.5688 4.28H55.6408V8.288H58.5688ZM79.4269 13.808H87.3709V17H75.2989V1.16H79.4269V13.808ZM96.4748 0.92C98.0748 0.92 99.4508 1.248 100.603 1.904C101.771 2.544 102.667 3.472 103.291 4.688C103.915 5.904 104.227 7.368 104.227 9.08C104.227 10.792 103.915 12.256 103.291 13.472C102.667 14.688 101.771 15.624 100.603 16.28C99.4508 16.92 98.0748 17.24 96.4748 17.24C94.8588 17.24 93.4668 16.92 92.2988 16.28C91.1468 15.624 90.2588 14.688 89.6348 13.472C89.0108 12.256 88.6988 10.792 88.6988 9.08C88.6988 7.368 89.0108 5.904 89.6348 4.688C90.2588 3.472 91.1468 2.544 92.2988 1.904C93.4668 1.248 94.8588 0.92 96.4748 0.92ZM96.4748 4.16C95.3228 4.16 94.4428 4.576 93.8348 5.408C93.2268 6.224 92.9228 7.448 92.9228 9.08C92.9228 10.712 93.2268 11.944 93.8348 12.776C94.4428 13.592 95.3228 14 96.4748 14C97.6108 14 98.4828 13.592 99.0908 12.776C99.6988 11.944 100.003 10.712 100.003 9.08C100.003 7.448 99.6988 6.224 99.0908 5.408C98.4828 4.576 97.6108 4.16 96.4748 4.16ZM113.768 17.24C112.36 17.24 111.104 16.928 110 16.304C108.912 15.68 108.064 14.76 107.456 13.544C106.848 12.328 106.544 10.848 106.544 9.104C106.544 7.408 106.864 5.952 107.504 4.736C108.144 3.504 109.056 2.56 110.24 1.904C111.44 1.248 112.848 0.92 114.464 0.92C116.272 0.92 117.72 1.248 118.808 1.904C119.912 2.544 120.768 3.568 121.376 4.976L117.56 6.488C117.352 5.672 116.984 5.08 116.456 4.712C115.928 4.344 115.272 4.16 114.488 4.16C113.304 4.16 112.384 4.584 111.728 5.432C111.088 6.264 110.768 7.48 110.768 9.08C110.768 10.776 111.096 12.04 111.752 12.872C112.408 13.688 113.392 14.096 114.704 14.096C115.616 14.096 116.376 13.88 116.984 13.448C117.592 13.016 117.896 12.352 117.896 11.456V11.216H114.272V8.456H121.4V17H118.592L118.424 15.056C117.976 15.76 117.36 16.304 116.576 16.688C115.808 17.056 114.872 17.24 113.768 17.24ZM131.814 0.92C133.414 0.92 134.79 1.248 135.942 1.904C137.11 2.544 138.006 3.472 138.63 4.688C139.254 5.904 139.566 7.368 139.566 9.08C139.566 10.792 139.254 12.256 138.63 13.472C138.006 14.688 137.11 15.624 135.942 16.28C134.79 16.92 133.414 17.24 131.814 17.24C130.198 17.24 128.806 16.92 127.638 16.28C126.486 15.624 125.598 14.688 124.974 13.472C124.35 12.256 124.038 10.792 124.038 9.08C124.038 7.368 124.35 5.904 124.974 4.688C125.598 3.472 126.486 2.544 127.638 1.904C128.806 1.248 130.198 0.92 131.814 0.92ZM131.814 4.16C130.662 4.16 129.782 4.576 129.174 5.408C128.566 6.224 128.262 7.448 128.262 9.08C128.262 10.712 128.566 11.944 129.174 12.776C129.782 13.592 130.662 14 131.814 14C132.95 14 133.822 13.592 134.43 12.776C135.038 11.944 135.342 10.712 135.342 9.08C135.342 7.448 135.038 6.224 134.43 5.408C133.822 4.576 132.95 4.16 131.814 4.16Z" fill="#F5F5F5"/>
</svg>
