<svg width="24" height="24" viewBox="0 0 24 24" fill="none" xmlns="http://www.w3.org/2000/svg">
<path d="M22.46 6.00006C21.69 6.35006 20.86 6.58006 20 6.69006C20.88 6.16006 21.56 5.32006 21.88 4.31006C21.05 4.81006 20.13 5.16006 19.16 5.36006C18.37 4.50006 17.26 4.00006 16 4.00006C13.65 4.00006 11.73 5.92006 11.73 8.29006C11.73 8.63006 11.77 8.96006 11.84 9.27006C8.28004 9.09006 5.11004 7.38006 3.00004 4.79006C2.63004 5.42006 2.42004 6.16006 2.42004 6.94006C2.42004 8.43006 3.17004 9.75006 4.33004 10.5001C3.62004 10.5001 2.96004 10.3001 2.38004 10.0001C2.38004 10.0001 2.38004 10.0001 2.38004 10.0301C2.38004 12.1101 3.86004 13.8501 5.82004 14.2401C5.46004 14.3401 5.08004 14.3901 4.69004 14.3901C4.42004 14.3901 4.15004 14.3601 3.89004 14.3101C4.43004 16.0001 6.00004 17.2601 7.89004 17.2901C6.43004 18.4501 4.58004 19.1301 2.56004 19.1301C2.22004 19.1301 1.88004 19.1101 1.54004 19.0701C3.44004 20.2901 5.70004 21.0001 8.12004 21.0001C16 21.0001 20.33 14.4601 20.33 8.79006C20.33 8.60006 20.33 8.42006 20.32 8.23006C21.16 7.63006 21.88 6.87006 22.46 6.00006Z" fill="currentColor"/>
</svg>
