<?xml version="1.0" encoding="utf-8"?><svg viewBox="0 0 140 24" xmlns="http://www.w3.org/2000/svg" xmlns:xlink="http://www.w3.org/1999/xlink"><style>:root>svg{display:none}:root>svg:target{display:block}</style><svg fill="none" viewBox="0 0 32 17" id="arrow-down" xmlns="http://www.w3.org/2000/svg"><path d="M1 1l15.5 14 14-14" stroke="currentColor" stroke-width="2"/></svg><svg fill="none" viewBox="0 0 24 24" id="fb" xmlns="http://www.w3.org/2000/svg"><path d="M17 2v4h-2c-.69 0-1 .81-1 1.5V10h3v4h-3v8h-4v-8H7v-4h3V6a4 4 0 014-4h3z" fill="currentColor"/></svg><svg fill="none" viewBox="0 0 24 24" id="in" xmlns="http://www.w3.org/2000/svg"><path d="M16.032 3H7.967A4.973 4.973 0 003 7.967v8.066A4.973 4.973 0 007.967 21h8.066A4.973 4.973 0 0021 16.033V7.967A4.973 4.973 0 0016.032 3zm3.371 13.033a3.374 3.374 0 01-3.37 3.37H7.967a3.374 3.374 0 01-3.37-3.37V7.967a3.374 3.374 0 013.37-3.37h8.066a3.374 3.374 0 013.37 3.37v8.066z" fill="currentColor"/><path d="M12 7.362A4.643 4.643 0 007.362 12 4.643 4.643 0 0012 16.638 4.643 4.643 0 0016.638 12 4.643 4.643 0 0012 7.362zm0 7.679a3.044 3.044 0 01-3.041-3.04A3.045 3.045 0 0112 8.958 3.045 3.045 0 0115.041 12 3.044 3.044 0 0112 15.041zM16.833 6.008a1.176 1.176 0 00-1.171 1.171c0 .308.125.61.343.828.218.218.52.343.828.343.308 0 .61-.125.828-.343a1.176 1.176 0 000-1.657 1.176 1.176 0 00-.828-.342z" fill="currentColor"/></svg><svg fill="none" viewBox="0 0 140 18" id="logo" xmlns="http://www.w3.org/2000/svg"><path d="M15.528 1.16L9.936 11.216V17H5.808v-5.784L.216 1.16h4.272L6.72 5.504l1.176 2.64 1.2-2.64 2.232-4.344h4.2zm8.126-.24c1.6 0 2.976.328 4.128.984 1.168.64 2.064 1.568 2.688 2.784.624 1.216.936 2.68.936 4.392 0 1.712-.312 3.176-.936 4.392a6.602 6.602 0 01-2.688 2.808c-1.152.64-2.528.96-4.128.96-1.616 0-3.008-.32-4.176-.96-1.152-.656-2.04-1.592-2.664-2.808-.624-1.216-.936-2.68-.936-4.392 0-1.712.312-3.176.936-4.392.624-1.216 1.512-2.144 2.664-2.784 1.168-.656 2.56-.984 4.176-.984zm0 3.24c-1.152 0-2.032.416-2.64 1.248-.608.816-.912 2.04-.912 3.672 0 1.632.304 2.864.912 3.696.608.816 1.488 1.224 2.64 1.224 1.136 0 2.008-.408 2.616-1.224.608-.832.912-2.064.912-3.696 0-1.632-.304-2.856-.912-3.672-.608-.832-1.48-1.248-2.616-1.248zm24.59-3v9.384c0 4.464-2.36 6.696-7.08 6.696-2.32 0-4.08-.552-5.28-1.656-1.2-1.12-1.8-2.8-1.8-5.04V1.16h4.152v9.456c0 2.256.976 3.384 2.928 3.384 1.968 0 2.952-1.128 2.952-3.384V1.16h4.128zm10.9 0c1.889 0 3.353.44 4.393 1.32 1.056.88 1.584 2.064 1.584 3.552 0 1.184-.28 2.16-.84 2.928-.544.752-1.328 1.304-2.352 1.656L66.057 17h-4.56l-3.384-5.784H55.64V17h-4.056V1.16h7.56zm-.575 7.128c.8 0 1.4-.16 1.8-.48.4-.32.6-.832.6-1.536 0-1.328-.8-1.992-2.4-1.992H55.64v4.008h2.928zm20.858 5.52h7.944V17H75.299V1.16h4.128v12.648zM96.475.92c1.6 0 2.976.328 4.128.984 1.168.64 2.064 1.568 2.688 2.784.624 1.216.936 2.68.936 4.392 0 1.712-.312 3.176-.936 4.392a6.602 6.602 0 01-2.688 2.808c-1.152.64-2.528.96-4.128.96-1.616 0-3.008-.32-4.176-.96-1.152-.656-2.04-1.592-2.664-2.808-.624-1.216-.936-2.68-.936-4.392 0-1.712.312-3.176.936-4.392.624-1.216 1.512-2.144 2.664-2.784 1.168-.656 2.56-.984 4.176-.984zm0 3.24c-1.152 0-2.032.416-2.64 1.248-.608.816-.912 2.04-.912 3.672 0 1.632.304 2.864.912 3.696.608.816 1.488 1.224 2.64 1.224 1.136 0 2.008-.408 2.616-1.224.608-.832.912-2.064.912-3.696 0-1.632-.304-2.856-.912-3.672-.608-.832-1.48-1.248-2.616-1.248zm17.293 13.08c-1.408 0-2.664-.312-3.768-.936-1.088-.624-1.936-1.544-2.544-2.76-.608-1.216-.912-2.696-.912-4.44 0-1.696.32-3.152.96-4.368.64-1.232 1.552-2.176 2.736-2.832 1.2-.656 2.608-.984 4.224-.984 1.808 0 3.256.328 4.344.984 1.104.64 1.96 1.664 2.568 3.072l-3.816 1.512c-.208-.816-.576-1.408-1.104-1.776-.528-.368-1.184-.552-1.968-.552-1.184 0-2.104.424-2.76 1.272-.64.832-.96 2.048-.96 3.648 0 1.696.328 2.96.984 3.792.656.816 1.64 1.224 2.952 1.224.912 0 1.672-.216 2.28-.648.608-.432.912-1.096.912-1.992v-.24h-3.624v-2.76h7.128V17h-2.808l-.168-1.944a4.47 4.47 0 01-1.848 1.632c-.768.368-1.704.552-2.808.552zM131.814.92c1.6 0 2.976.328 4.128.984 1.168.64 2.064 1.568 2.688 2.784.624 1.216.936 2.68.936 4.392 0 1.712-.312 3.176-.936 4.392a6.602 6.602 0 01-2.688 2.808c-1.152.64-2.528.96-4.128.96-1.616 0-3.008-.32-4.176-.96-1.152-.656-2.04-1.592-2.664-2.808-.624-1.216-.936-2.68-.936-4.392 0-1.712.312-3.176.936-4.392.624-1.216 1.512-2.144 2.664-2.784 1.168-.656 2.56-.984 4.176-.984zm0 3.24c-1.152 0-2.032.416-2.64 1.248-.608.816-.912 2.04-.912 3.672 0 1.632.304 2.864.912 3.696.608.816 1.488 1.224 2.64 1.224 1.136 0 2.008-.408 2.616-1.224.608-.832.912-2.064.912-3.696 0-1.632-.304-2.856-.912-3.672-.608-.832-1.48-1.248-2.616-1.248z" fill="#F5F5F5"/></svg><svg fill="none" viewBox="0 0 24 24" id="tw" xmlns="http://www.w3.org/2000/svg"><path d="M22.46 6c-.77.35-1.6.58-2.46.69.88-.53 1.56-1.37 1.88-2.38-.83.5-1.75.85-2.72 1.05C18.37 4.5 17.26 4 16 4c-2.35 0-4.27 1.92-4.27 4.29 0 .34.04.67.11.98C8.28 9.09 5.11 7.38 3 4.79c-.37.63-.58 1.37-.58 2.15 0 1.49.75 2.81 1.91 3.56-.71 0-1.37-.2-1.95-.5v.03c0 2.08 1.48 3.82 3.44 4.21a4.22 4.22 0 01-1.93.07 4.28 4.28 0 004 2.98 8.521 8.521 0 01-5.33 1.84c-.34 0-.68-.02-1.02-.06C3.44 20.29 5.7 21 8.12 21 16 21 20.33 14.46 20.33 8.79c0-.19 0-.37-.01-.56.84-.6 1.56-1.36 2.14-2.23z" fill="currentColor"/></svg></svg>